<svg width="235" height="235" viewBox="0 0 235 235" fill="none" xmlns="http://www.w3.org/2000/svg">
<g clip-path="url(#clip0_382_3)">
<rect width="235" height="235" fill="#052941"/>
<path d="M190.417 284.683C185.899 265.085 166.714 182.029 163.345 136.834C163 132.249 162.579 124.341 162.196 116.968C161.2 97.2162 160.473 77.4265 159.477 57.675C159.247 52.8995 158.75 48.0858 157.716 43.4249C156.567 38.1528 154.691 32.1548 148.219 32.1166C141.212 32.0784 139.527 38.4202 138.378 43.9216C137.421 48.5825 137.038 53.4344 136.885 58.2099C136.195 77.694 135.544 97.1398 135.238 116.624C135.162 121.934 133.668 123.997 128.154 122.431C121.338 120.482 114.331 120.253 107.553 122.316C101.081 124.265 99.8944 121.667 99.8178 115.783C99.5498 96.2993 98.7457 76.8535 98.1713 57.3694C98.0181 52.0209 97.5203 46.7105 95.912 41.553C94.4569 36.8539 92.504 31.8873 86.6453 32.0019C81.3227 32.1166 79.0252 36.6246 77.7998 41.0945C76.6893 45.1823 75.9235 49.423 75.6554 53.6636C74.9279 65.3923 74.7364 77.1209 73.9706 88.8495C72.4772 111.505 71.6348 143.328 69.9116 156.738C65.2782 192.459 47.3575 275.514 44.5239 285.638C44.2558 286.517 43.4134 289.497 44.6771 292.362C45.8641 294.998 48.2765 296.297 49.1189 296.718C78.4891 312.381 118.811 311.999 118.811 311.999C118.811 311.999 156.988 311.655 189.575 293.47C192.868 291.636 190.8 286.211 190.417 284.683Z" fill="#005B52"/>
<path d="M100.298 150.659C98.6141 150.659 97.236 152.035 97.236 153.717V159.834C97.236 161.517 98.6141 162.893 100.298 162.893C101.983 162.893 103.361 161.517 103.361 159.834V153.717C103.361 152.035 102.021 150.659 100.298 150.659Z" fill="#DBF226"/>
<path d="M134.368 150.659C132.684 150.659 131.305 152.035 131.305 153.717V159.834C131.305 161.517 132.684 162.893 134.368 162.893C136.052 162.893 137.43 161.517 137.43 159.834V153.717C137.43 152.035 136.091 150.659 134.368 150.659Z" fill="#DBF226"/>
<path d="M117.907 169.393C116.223 169.393 114.845 170.769 114.845 172.451V178.568C114.845 180.251 116.223 181.627 117.907 181.627C119.592 181.627 120.97 180.251 120.97 178.568V172.451C120.97 170.769 119.63 169.393 117.907 169.393Z" fill="#DBF226"/>
<path d="M126.712 172.451C126.712 170.769 125.334 169.393 123.65 169.393H112.165C110.481 169.393 109.103 170.769 109.103 172.451C109.103 174.133 110.481 175.51 112.165 175.51H123.65C125.372 175.51 126.712 174.172 126.712 172.451Z" fill="#DBF226"/>
</g>
<defs>
<clipPath id="clip0_382_3">
<rect width="235" height="235" fill="white"/>
</clipPath>
</defs>
</svg>
