<svg width="40" height="75" viewBox="0 0 40 75" fill="none" xmlns="http://www.w3.org/2000/svg">
<path d="M38.7845 66.9334C37.5876 61.7419 32.5058 39.7413 31.6132 27.7695C31.522 26.5551 31.4104 24.4603 31.3089 22.5071C31.0452 17.2751 30.8525 12.033 30.5888 6.80107C30.5279 5.53609 30.3961 4.26098 30.1222 3.02636C29.8179 1.62982 29.3209 0.0409952 27.6067 0.0308753C25.7505 0.0207554 25.3042 1.70065 24.9999 3.15792C24.7463 4.39254 24.6448 5.67777 24.6043 6.94275C24.4217 12.1039 24.2492 17.2549 24.1681 22.416C24.1478 23.8227 23.7522 24.3692 22.2916 23.9543C20.4861 23.4382 18.6299 23.3774 16.8345 23.9239C15.1203 24.44 14.8059 23.7519 14.7856 22.1934C14.7146 17.0323 14.5016 11.8813 14.3495 6.72011C14.3089 5.30333 14.177 3.89667 13.751 2.53048C13.3656 1.28574 12.8482 -0.029844 11.2963 0.000515654C9.88642 0.0308753 9.27783 1.22502 8.95325 2.40905C8.65909 3.49187 8.45622 4.61518 8.38522 5.73849C8.1925 8.84529 8.14179 11.9521 7.93892 15.0589C7.54334 21.06 7.32018 29.4898 6.86374 33.0419C5.6364 42.504 0.889369 64.5046 0.138769 67.1864C0.0677666 67.4191 -0.155382 68.2085 0.179345 68.9675C0.493785 69.6657 1.13281 70.0098 1.35596 70.1211C9.13582 74.2703 19.8167 74.1691 19.8167 74.1691C19.8167 74.1691 29.9295 74.078 38.5614 69.261C39.4337 68.7752 38.886 67.3382 38.7845 66.9334Z" fill="#052941"/>
<path d="M14.9128 31.4315C14.4666 31.4315 14.1016 31.7961 14.1016 32.2417V33.8621C14.1016 34.3077 14.4666 34.6723 14.9128 34.6723C15.3589 34.6723 15.724 34.3077 15.724 33.8621V32.2417C15.724 31.7961 15.3691 31.4315 14.9128 31.4315Z" fill="white"/>
<path d="M23.9374 31.4315C23.4913 31.4315 23.1262 31.7961 23.1262 32.2417V33.8621C23.1262 34.3077 23.4913 34.6723 23.9374 34.6723C24.3836 34.6723 24.7487 34.3077 24.7487 33.8621V32.2417C24.7487 31.7961 24.3937 31.4315 23.9374 31.4315Z" fill="white"/>
<path d="M19.5773 36.394C19.1312 36.394 18.7661 36.7586 18.7661 37.2042V38.8246C18.7661 39.2702 19.1312 39.6348 19.5773 39.6348C20.0235 39.6348 20.3885 39.2702 20.3885 38.8246V37.2042C20.3885 36.7586 20.0336 36.394 19.5773 36.394Z" fill="white"/>
<path d="M21.9096 37.2042C21.9096 36.7586 21.5446 36.394 21.0984 36.394H18.0563C17.6102 36.394 17.2451 36.7586 17.2451 37.2042C17.2451 37.6498 17.6102 38.0144 18.0563 38.0144H21.0984C21.5547 38.0144 21.9096 37.6599 21.9096 37.2042Z" fill="white"/>
</svg>
